# xmcd
#
# Track frame offsets: 
#        150
#        17101
#        39301
#        52201
#        72076
#        88127
#        109728
#        121728
#        141453
#        152704
#        168755
#        189456
#
# Disc length: 2774 seconds
#
# Revision: 0
# Processed by: cddbd v1.5.2PL0 Copyright (c) Steve Scherf et al.
# Submitted via: ExactAudioCopy v1.0b3
#
DISCID=a00ad40c
DTITLE=Noirin Lynch - Echotones
DYEAR=1900
DGENRE=
TTITLE0=My Heart's Tonight in Ireland
TTITLE1=Sean O'Dubhir a Chleanna
TTITLE2=When You are Old
TTITLE3=Bonnie Blue-Eyed Lassie
TTITLE4=Note of Truth
TTITLE5=Hedger and Ditcher
TTITLE6=Lady Franklin's Lament
TTITLE7=Tree of Liberty
TTITLE8=Summer at My Feet
TTITLE9=Bold Doherty
TTITLE10=Cyprus Brig
TTITLE11=John Riley
EXTD=
EXTT0=
EXTT1=
EXTT2=
EXTT3=
EXTT4=
EXTT5=
EXTT6=
EXTT7=
EXTT8=
EXTT9=
EXTT10=
EXTT11=
PLAYORDER=
